<svg width="18" height="16" viewBox="0 0 18 16" fill="#616061" xmlns="http://www.w3.org/2000/svg">
<path fill-rule="evenodd" clip-rule="evenodd" d="M16 12.4023L10 13.7503V3.59729L16 2.25029V12.4023ZM2 2.25029L8 3.59729V13.7503L2 12.4023V2.25029ZM17.625 0.218287C17.387 0.0292866 17.077 -0.0427134 16.78 0.0242866L9 1.77229L1.22 0.0242866C0.922 -0.0437134 0.613 0.0292866 0.375 0.218287C0.138 0.409287 0 0.696287 0 1.00029V13.2023C0 13.6703 0.324 14.0753 0.78 14.1773L8.78 15.9753C8.854 15.9923 8.927 16.0003 9 16.0003C9.073 16.0003 9.146 15.9923 9.22 15.9753L17.22 14.1773C17.676 14.0753 18 13.6703 18 13.2023V1.00029C18 0.696287 17.862 0.409287 17.625 0.218287Z"/>
</svg>
