<svg width="20" height="20" viewBox="0 0 20 20" fill="#616061" xmlns="http://www.w3.org/2000/svg">
<path fill-rule="evenodd" clip-rule="evenodd" d="M18.997 8.97409H19C19.551 8.97409 19.999 9.42009 20 9.97109C20.008 12.6421 18.975 15.1571 17.091 17.0511C15.208 18.9451 12.7 19.9921 10.029 20.0001H10C7.33905 20.0001 4.83605 18.9681 2.94905 17.0911C1.05505 15.2081 0.00804612 12.7001 4.61203e-05 10.0291C-0.00795388 7.35709 1.02505 4.84309 2.90905 2.94909C4.79205 1.05509 7.30005 0.00809155 9.97105 9.15527e-05C10.766 0.0120916 11.576 0.0920915 12.352 0.278092C12.888 0.408092 13.219 0.948092 13.089 1.48509C12.96 2.02109 12.417 2.35109 11.883 2.22309C11.262 2.07309 10.603 2.01009 9.97705 2.00009C7.84005 2.00609 5.83305 2.84409 4.32705 4.35909C2.82005 5.87409 1.99405 7.88609 2.00005 10.0231C2.00605 12.1601 2.84405 14.1661 4.35905 15.6731C5.86905 17.1741 7.87105 18.0001 10 18.0001H10.023C12.16 17.9941 14.167 17.1561 15.673 15.6411C17.18 14.1251 18.006 12.1141 18 9.97709C17.999 9.42509 18.445 8.97509 18.997 8.97409ZM6.29305 9.29299C6.68405 8.90199 7.31605 8.90199 7.70705 9.29299L9.95105 11.537L16.248 4.34099C16.612 3.92799 17.243 3.88399 17.659 4.24799C18.074 4.61099 18.116 5.24299 17.752 5.65899L10.752 13.659C10.57 13.867 10.31 13.99 10.033 14H10C9.73505 14 9.48105 13.895 9.29305 13.707L6.29305 10.707C5.90205 10.316 5.90205 9.68399 6.29305 9.29299Z" />
</svg>
