<svg width="16" height="22" viewBox="0 0 16 22" fill="#616061" xmlns="http://www.w3.org/2000/svg">
<path fill-rule="evenodd" clip-rule="evenodd" d="M2.87087 11.7998H7.99987C8.28387 11.7998 8.55487 11.9208 8.74387 12.1318C8.93287 12.3428 9.02387 12.6248 8.99387 12.9068L8.54487 17.0568L13.1289 10.1998H7.99987C7.71587 10.1998 7.44487 10.0788 7.25587 9.8678C7.06587 9.6568 6.97487 9.3748 7.00587 9.0928L7.45487 4.9438L2.87087 11.7998ZM7.11087 21.9998C6.99687 21.9998 6.88187 21.9808 6.76887 21.9398C6.33687 21.7818 6.06687 21.3498 6.11687 20.8928L6.88587 13.7998H0.999871C0.630871 13.7998 0.291871 13.5968 0.117871 13.2718C-0.056129 12.9458 -0.036129 12.5508 0.168871 12.2438L8.05787 0.444798C8.31287 0.0607982 8.79687 -0.0972018 9.22987 0.0607982C9.66287 0.217798 9.93287 0.650798 9.88287 1.1078L9.11387 8.1998H14.9999C15.3689 8.1998 15.7079 8.4038 15.8819 8.7288C16.0559 9.0548 16.0359 9.4488 15.8309 9.7558L7.94187 21.5558C7.75287 21.8398 7.43687 21.9998 7.11087 21.9998Z" />
</svg>
