<svg width="20" height="18" viewBox="0 0 20 18" fill="#616061" xmlns="http://www.w3.org/2000/svg">
<path fill-rule="evenodd" clip-rule="evenodd" d="M2 10.7554V15.0684C2 15.3064 2.224 15.5004 2.5 15.5004H17.5C17.776 15.5004 18 15.3064 18 15.0684V6.47843C18 6.23943 17.776 6.04643 17.5 6.04643H10C9.7 6.04643 9.416 5.91143 9.226 5.67843L6.626 2.50043H2.5C2.224 2.50043 2 2.69343 2 2.93143V10.7554ZM17.5 17.5004H2.5C1.122 17.5004 0 16.4094 0 15.0684V2.93143C0 1.59043 1.122 0.500427 2.5 0.500427H7.101C7.4 0.500427 7.685 0.634427 7.875 0.867427L10.474 4.04643H17.5C18.878 4.04643 20 5.13643 20 6.47843V15.0684C20 16.4094 18.878 17.5004 17.5 17.5004Z" />
</svg>
