<svg width="21" height="20" viewBox="0 0 21 20" fill="#616061" xmlns="http://www.w3.org/2000/svg">
<path fill-rule="evenodd" clip-rule="evenodd" d="M3.40262 9.62212C4.51862 10.0051 5.40762 10.9391 5.77962 12.1231L5.81962 12.2431C6.24562 13.4991 6.07262 14.8511 5.35862 15.8651C5.22862 16.0491 5.25762 16.2691 5.39462 16.3731L7.46662 17.9471C7.53962 18.0021 7.61062 18.0021 7.65462 17.9971C7.70462 17.9891 7.77762 17.9621 7.83662 17.8781L8.06762 17.5501C8.75662 16.5731 9.86662 15.9701 11.0386 15.9361C12.3546 15.9091 13.5366 16.5121 14.2726 17.5751L14.3906 17.7461C14.4496 17.8301 14.5216 17.8581 14.5726 17.8661C14.6166 17.8751 14.6886 17.8721 14.7606 17.8161L16.8216 16.2611C16.9656 16.1531 16.9976 15.9221 16.8906 15.7671L16.6306 15.3921C15.9606 14.4241 15.7616 13.1681 16.0986 12.0331C16.4646 10.7971 17.3956 9.81912 18.5906 9.41912L18.7916 9.35112C18.9526 9.29812 19.0396 9.09812 18.9826 8.91412L18.1956 6.39312C18.1586 6.27512 18.0826 6.22212 18.0406 6.20012C17.9806 6.16912 17.9156 6.16412 17.8536 6.18512L17.5136 6.29812C16.3506 6.68512 15.0676 6.47512 14.0826 5.73412L13.9746 5.65312C13.0386 4.94912 12.4816 3.81412 12.4856 2.61812L12.4876 2.33812C12.4876 2.20512 12.4246 2.12212 12.3866 2.08412C12.3506 2.04712 12.2896 2.00312 12.2036 2.00312L9.65662 2.00012C9.50062 2.00012 9.37362 2.14912 9.37262 2.33312L9.37162 2.57512C9.36662 3.79012 8.79762 4.94612 7.84962 5.66912L7.72062 5.76712C6.67762 6.56012 5.31762 6.78412 4.08562 6.36412C4.03862 6.34812 3.99462 6.35112 3.95262 6.37312C3.92062 6.38912 3.86262 6.43012 3.83462 6.52112L3.01762 9.11712C2.95862 9.30612 3.05562 9.50312 3.23862 9.56612L3.40262 9.62212ZM7.61362 20.0001C7.12762 20.0001 6.65562 19.8421 6.25762 19.5391L4.18562 17.9661C3.19562 17.2161 2.97662 15.7731 3.69662 14.7501C4.07062 14.2201 4.14762 13.5391 3.92762 12.8931L3.87262 12.7251C3.68962 12.1431 3.27162 11.6911 2.75462 11.5141H2.75362L2.59062 11.4571C1.37262 11.0401 0.722624 9.74912 1.10962 8.51712L1.92562 5.92212C2.11062 5.33512 2.50962 4.86112 3.04962 4.58812C3.57762 4.32212 4.17462 4.28112 4.73262 4.47212C5.33162 4.67612 5.99662 4.56512 6.50962 4.17512L6.63862 4.07712C7.09462 3.72912 7.36962 3.16412 7.37162 2.56712L7.37262 2.32612C7.37762 1.04212 8.40262 0.00012207 9.65562 0.00012207H9.65962L12.2066 0.00312207C12.8086 0.00412207 13.3766 0.242122 13.8046 0.673122C14.2476 1.11812 14.4896 1.71312 14.4876 2.34812L14.4856 2.62712C14.4836 3.19312 14.7426 3.72812 15.1796 4.05612L15.2866 4.13712C15.7456 4.48212 16.3436 4.58112 16.8806 4.40112L17.2196 4.28812C17.7966 4.09612 18.4106 4.14312 18.9516 4.42012C19.5066 4.70412 19.9166 5.19312 20.1046 5.79812L20.8916 8.31912C21.2716 9.53712 20.6136 10.8511 19.4266 11.2481L19.2256 11.3151C18.6496 11.5091 18.1966 11.9891 18.0156 12.6011C17.8496 13.1621 17.9456 13.7791 18.2746 14.2531L18.5346 14.6281C19.2486 15.6601 19.0206 17.1081 18.0266 17.8571L15.9656 19.4131C15.4706 19.7871 14.8636 19.9381 14.2546 19.8411C13.6406 19.7421 13.1046 19.4021 12.7456 18.8841L12.6276 18.7121C12.2776 18.2081 11.7176 17.9021 11.1306 17.9351C10.5426 17.9511 10.0346 18.2301 9.70262 18.7021L9.47162 19.0301C9.10962 19.5431 8.57262 19.8781 7.96162 19.9741C7.84462 19.9921 7.72862 20.0001 7.61362 20.0001ZM10.9998 8.50002C10.1728 8.50002 9.49982 9.17302 9.49982 10C9.49982 10.827 10.1728 11.5 10.9998 11.5C11.8268 11.5 12.4998 10.827 12.4998 10C12.4998 9.17302 11.8268 8.50002 10.9998 8.50002ZM10.9998 13.5C9.06982 13.5 7.49982 11.93 7.49982 10C7.49982 8.07002 9.06982 6.50002 10.9998 6.50002C12.9298 6.50002 14.4998 8.07002 14.4998 10C14.4998 11.93 12.9298 13.5 10.9998 13.5Z" />
</svg>
