<svg width="18" height="12" viewBox="0 0 18 12" fill="#616061" xmlns="http://www.w3.org/2000/svg">
<path fill-rule="evenodd" clip-rule="evenodd" d="M17.992 0.962878C17.99 0.890878 17.969 0.822878 17.95 0.753878C17.935 0.695878 17.928 0.636878 17.903 0.583878C17.88 0.531878 17.841 0.489878 17.807 0.441878C17.765 0.380878 17.727 0.319878 17.673 0.269878C17.664 0.260878 17.66 0.248878 17.65 0.240878C17.614 0.209878 17.57 0.198878 17.531 0.173878C17.471 0.134878 17.412 0.0948779 17.344 0.0688779C17.277 0.0448779 17.211 0.0388779 17.142 0.0288779C17.094 0.0218779 17.051 -0.00012207 17 -0.00012207H12C11.447 -0.00012207 11 0.447878 11 0.999878C11 1.55188 11.447 1.99988 12 1.99988H14.826L10.79 6.70788L6.51401 4.14288C6.09101 3.88688 5.54701 3.98088 5.23101 4.35988L0.231007 10.3599C-0.121993 10.7839 -0.0649928 11.4149 0.359007 11.7679C0.547007 11.9239 0.773007 11.9999 0.999007 11.9999C1.28601 11.9999 1.57001 11.8779 1.76801 11.6399L6.22001 6.29788L10.485 8.85788C10.904 9.10888 11.442 9.02088 11.759 8.65088L16 3.70288V5.99988C16 6.55188 16.447 6.99988 17 6.99988C17.553 6.99988 18 6.55188 18 5.99988V0.999878C18 0.986878 17.993 0.975878 17.992 0.962878Z" />
</svg>
