<svg width="16" height="16" viewBox="0 0 16 16" fill="none" xmlns="http://www.w3.org/2000/svg">
<path fill-rule="evenodd" clip-rule="evenodd" d="M12.0187 6.67871L9.32365 3.98371L11.2717 2.03471L13.9657 4.72871L12.0187 6.67871ZM5.07965 13.6247L2.10265 13.8957L2.36665 10.9397L7.98365 5.32271L10.6797 8.01871L5.07965 13.6247ZM15.4037 3.33771L15.4027 3.33671L12.6647 0.598705C11.9237 -0.140295 10.6507 -0.175295 9.94865 0.529705L0.952652 9.52571C0.626652 9.85071 0.424652 10.2827 0.382652 10.7397L0.00365188 14.9097C-0.0223481 15.2047 0.0826519 15.4967 0.292652 15.7067C0.481652 15.8957 0.736652 15.9997 0.999652 15.9997C1.03065 15.9997 1.06065 15.9987 1.09065 15.9957L5.26065 15.6167C5.71865 15.5747 6.14965 15.3737 6.47465 15.0487L15.4717 6.05171C16.1997 5.32171 16.1687 4.1037 15.4037 3.33771Z" fill="#616061"/>
</svg>
