<svg width="18" height="20" viewBox="0 0 18 20" fill="none" xmlns="http://www.w3.org/2000/svg">
<path fill-rule="evenodd" clip-rule="evenodd" d="M2.51436 14L3.69436 12.818C4.07236 12.44 4.28036 11.938 4.28036 11.404V6.727C4.28036 5.37 4.87036 4.073 5.90036 3.171C6.93836 2.261 8.26036 1.861 9.63736 2.042C11.9644 2.351 13.7194 4.455 13.7194 6.937V11.404C13.7194 11.938 13.9274 12.44 14.3044 12.817L15.4854 14H2.51436ZM10.9994 16.341C10.9994 17.24 10.0834 18 8.99936 18C7.91536 18 6.99936 17.24 6.99936 16.341V16H10.9994V16.341ZM17.5204 13.208L15.7194 11.404V6.937C15.7194 3.456 13.2174 0.499001 9.89936 0.0600011C7.97736 -0.195999 6.03736 0.391001 4.58236 1.667C3.11836 2.949 2.28036 4.793 2.28036 6.727L2.27936 11.404L0.478359 13.208C0.00935877 13.678 -0.129641 14.377 0.124359 14.99C0.379359 15.604 0.972359 16 1.63636 16H4.99936V16.341C4.99936 18.359 6.79336 20 8.99936 20C11.2054 20 12.9994 18.359 12.9994 16.341V16H16.3624C17.0264 16 17.6184 15.604 17.8724 14.991C18.1274 14.377 17.9894 13.677 17.5204 13.208Z" fill="#959595"/>
</svg>
