<svg width="36" height="36" viewBox="0 0 36 36" fill="none" xmlns="http://www.w3.org/2000/svg">
<rect x="0.5" y="0.5" width="35" height="35" rx="5.5" fill="#FFEEE6" stroke="#FF4C00"/>
<path fill-rule="evenodd" clip-rule="evenodd" d="M15.8662 20H20.1342C20.6102 20 21.0002 19.61 21.0002 19.134V18.866C21.0002 18.39 20.6102 18 20.1342 18H15.8662C15.3892 18 15.0002 18.39 15.0002 18.866V19.134C15.0002 19.61 15.3892 20 15.8662 20ZM24 24C24 24.551 23.552 25 23 25H13C12.449 25 12 24.551 12 24V15H24V24ZM12 11H24C24.552 11 25 11.449 25 12C25 12.551 24.552 13 24 13H12C11.449 13 11 12.551 11 12C11 11.449 11.449 11 12 11ZM27 12C27 10.346 25.654 9 24 9H12C10.346 9 9 10.346 9 12C9 12.883 9.391 13.67 10 14.22V24C10 25.654 11.346 27 13 27H23C24.654 27 26 25.654 26 24V14.22C26.609 13.67 27 12.883 27 12Z" fill="#FF4C00"/>
<mask id="mask0" mask-type="alpha" maskUnits="userSpaceOnUse" x="9" y="9" width="18" height="18">
<path fill-rule="evenodd" clip-rule="evenodd" d="M15.8662 20H20.1342C20.6102 20 21.0002 19.61 21.0002 19.134V18.866C21.0002 18.39 20.6102 18 20.1342 18H15.8662C15.3892 18 15.0002 18.39 15.0002 18.866V19.134C15.0002 19.61 15.3892 20 15.8662 20ZM24 24C24 24.551 23.552 25 23 25H13C12.449 25 12 24.551 12 24V15H24V24ZM12 11H24C24.552 11 25 11.449 25 12C25 12.551 24.552 13 24 13H12C11.449 13 11 12.551 11 12C11 11.449 11.449 11 12 11ZM27 12C27 10.346 25.654 9 24 9H12C10.346 9 9 10.346 9 12C9 12.883 9.391 13.67 10 14.22V24C10 25.654 11.346 27 13 27H23C24.654 27 26 25.654 26 24V14.22C26.609 13.67 27 12.883 27 12Z" fill="white"/>
</mask>
<g mask="url(#mask0)">
<rect x="6" y="6" width="24" height="24" fill="#FF4C00"/>
</g>
</svg>
