<svg width="36" height="36" viewBox="0 0 36 36" fill="none" xmlns="http://www.w3.org/2000/svg">
<rect x="0.5" y="0.5" width="35" height="35" rx="5.5" fill="#D4EFDF" stroke="#27AE60"/>
<path d="M24.8051 25H21.7631C21.5651 25 21.4031 24.952 21.2771 24.856C21.1571 24.76 21.0611 24.646 20.9891 24.514L18.3611 19.924C18.3131 20.056 18.2591 20.17 18.1991 20.266L15.7511 24.514C15.6671 24.634 15.5681 24.745 15.4541 24.847C15.3401 24.949 15.1931 25 15.0131 25H12.1691L16.3901 18.25L12.3311 11.887H15.3731C15.5711 11.887 15.7151 11.914 15.8051 11.968C15.9011 12.016 15.9851 12.1 16.0571 12.22L18.6671 16.639C18.6971 16.561 18.7301 16.486 18.7661 16.414C18.8081 16.342 18.8531 16.267 18.9011 16.189L21.1871 12.265C21.2711 12.133 21.3581 12.037 21.4481 11.977C21.5441 11.917 21.6611 11.887 21.7991 11.887H24.7151L20.6021 18.124L24.8051 25Z" fill="#27AE60"/>
</svg>
