<svg width="36" height="36" viewBox="0 0 36 36" fill="none" xmlns="http://www.w3.org/2000/svg">
<rect x="0.5" y="0.5" width="35" height="35" rx="5.5" fill="#F8F8F8" stroke="#616061"/>
<path fill-rule="evenodd" clip-rule="evenodd" d="M14 16C14.828 16 15.5 15.328 15.5 14.5C15.5 13.672 14.828 13 14 13C13.172 13 12.5 13.672 12.5 14.5C12.5 15.328 13.172 16 14 16ZM24 25H12.561L19.566 19.155C19.812 18.946 20.258 18.947 20.499 19.154L25 22.994V24C25 24.552 24.552 25 24 25ZM12 11H24C24.552 11 25 11.448 25 12V20.364L21.797 17.632C20.807 16.79 19.258 16.79 18.277 17.626L11 23.698V12C11 11.448 11.448 11 12 11ZM24 9H12C10.346 9 9 10.346 9 12V24C9 25.654 10.346 27 12 27H24C25.654 27 27 25.654 27 24V12C27 10.346 25.654 9 24 9Z" fill="#616061"/>
<mask id="mask0" mask-type="alpha" maskUnits="userSpaceOnUse" x="9" y="9" width="18" height="18">
<path fill-rule="evenodd" clip-rule="evenodd" d="M14 16C14.828 16 15.5 15.328 15.5 14.5C15.5 13.672 14.828 13 14 13C13.172 13 12.5 13.672 12.5 14.5C12.5 15.328 13.172 16 14 16ZM24 25H12.561L19.566 19.155C19.812 18.946 20.258 18.947 20.499 19.154L25 22.994V24C25 24.552 24.552 25 24 25ZM12 11H24C24.552 11 25 11.448 25 12V20.364L21.797 17.632C20.807 16.79 19.258 16.79 18.277 17.626L11 23.698V12C11 11.448 11.448 11 12 11ZM24 9H12C10.346 9 9 10.346 9 12V24C9 25.654 10.346 27 12 27H24C25.654 27 27 25.654 27 24V12C27 10.346 25.654 9 24 9Z" fill="white"/>
</mask>
<g mask="url(#mask0)">
<rect x="6" y="6" width="24" height="24" fill="#616061"/>
</g>
</svg>
