<svg width="36" height="36" viewBox="0 0 36 36" fill="none" xmlns="http://www.w3.org/2000/svg">
<rect x="0.5" y="0.5" width="35" height="35" rx="5.5" fill="#FFCFCC" stroke="#FF0F00"/>
<path d="M8.84477 17.806C9.46077 17.806 9.9041 17.659 10.1748 17.365C10.4454 17.071 10.5808 16.6603 10.5808 16.133C10.5808 15.8997 10.5458 15.6873 10.4758 15.496C10.4058 15.3047 10.2984 15.1413 10.1538 15.006C10.0138 14.866 9.8341 14.7587 9.61477 14.684C9.4001 14.6093 9.14343 14.572 8.84477 14.572H7.61277V17.806H8.84477ZM8.84477 12.801C9.56343 12.801 10.1794 12.8873 10.6928 13.06C11.2108 13.228 11.6354 13.4613 11.9668 13.76C12.3028 14.0587 12.5501 14.411 12.7088 14.817C12.8674 15.223 12.9468 15.6617 12.9468 16.133C12.9468 16.6417 12.8651 17.1083 12.7018 17.533C12.5384 17.9577 12.2888 18.3217 11.9528 18.625C11.6168 18.9283 11.1898 19.1663 10.6718 19.339C10.1584 19.507 9.54943 19.591 8.84477 19.591H7.61277V23H5.24677V12.801H8.84477ZM23.4012 17.897C23.4012 18.6343 23.2728 19.3157 23.0162 19.941C22.7642 20.5617 22.4072 21.1007 21.9452 21.558C21.4832 22.0107 20.9255 22.3653 20.2722 22.622C19.6235 22.874 18.9025 23 18.1092 23H14.1472V12.801H18.1092C18.9025 12.801 19.6235 12.9293 20.2722 13.186C20.9255 13.4427 21.4832 13.7973 21.9452 14.25C22.4072 14.7027 22.7642 15.2417 23.0162 15.867C23.2728 16.4877 23.4012 17.1643 23.4012 17.897ZM20.9792 17.897C20.9792 17.393 20.9138 16.938 20.7832 16.532C20.6525 16.126 20.4635 15.783 20.2162 15.503C19.9735 15.2183 19.6748 15.0013 19.3202 14.852C18.9655 14.698 18.5618 14.621 18.1092 14.621H16.5272V21.18H18.1092C18.5618 21.18 18.9655 21.1053 19.3202 20.956C19.6748 20.802 19.9735 20.585 20.2162 20.305C20.4635 20.0203 20.6525 19.675 20.7832 19.269C20.9138 18.863 20.9792 18.4057 20.9792 17.897ZM27.1775 14.621V17.204H30.6635V19.031H27.1775V23H24.7975V12.801H31.3635V14.621H27.1775Z" fill="#FF0F00"/>
</svg>
