<svg width="36" height="36" viewBox="0 0 36 36" fill="none" xmlns="http://www.w3.org/2000/svg">
<rect x="0.5" y="0.5" width="35" height="35" rx="5.5" fill="#FFEEE6" stroke="#FF4C00"/>
<path d="M9.91898 17.806C10.535 17.806 10.9783 17.659 11.249 17.365C11.5197 17.071 11.655 16.6603 11.655 16.133C11.655 15.8997 11.62 15.6873 11.55 15.496C11.48 15.3047 11.3727 15.1413 11.228 15.006C11.088 14.866 10.9083 14.7587 10.689 14.684C10.4743 14.6093 10.2177 14.572 9.91898 14.572H8.68698V17.806H9.91898ZM9.91898 12.801C10.6377 12.801 11.2537 12.8873 11.767 13.06C12.285 13.228 12.7097 13.4613 13.041 13.76C13.377 14.0587 13.6243 14.411 13.783 14.817C13.9417 15.223 14.021 15.6617 14.021 16.133C14.021 16.6417 13.9393 17.1083 13.776 17.533C13.6127 17.9577 13.363 18.3217 13.027 18.625C12.691 18.9283 12.264 19.1663 11.746 19.339C11.2327 19.507 10.6237 19.591 9.91898 19.591H8.68698V23H6.32098V12.801H9.91898ZM18.8194 17.806C19.4354 17.806 19.8787 17.659 20.1494 17.365C20.42 17.071 20.5554 16.6603 20.5554 16.133C20.5554 15.8997 20.5204 15.6873 20.4504 15.496C20.3804 15.3047 20.273 15.1413 20.1284 15.006C19.9884 14.866 19.8087 14.7587 19.5894 14.684C19.3747 14.6093 19.118 14.572 18.8194 14.572H17.5874V17.806H18.8194ZM18.8194 12.801C19.538 12.801 20.154 12.8873 20.6674 13.06C21.1854 13.228 21.61 13.4613 21.9414 13.76C22.2774 14.0587 22.5247 14.411 22.6834 14.817C22.842 15.223 22.9214 15.6617 22.9214 16.133C22.9214 16.6417 22.8397 17.1083 22.6764 17.533C22.513 17.9577 22.2634 18.3217 21.9274 18.625C21.5914 18.9283 21.1644 19.1663 20.6464 19.339C20.133 19.507 19.524 19.591 18.8194 19.591H17.5874V23H15.2214V12.801H18.8194ZM31.4508 14.677H28.5808V23H26.2148V14.677H23.3448V12.801H31.4508V14.677Z" fill="#FF4C00"/>
</svg>
