<svg width="36" height="36" viewBox="0 0 36 36" fill="none" xmlns="http://www.w3.org/2000/svg">
<rect x="0.5" y="0.5" width="35" height="35" rx="5.5" fill="#D5E6FB" stroke="#2F80ED"/>
<path d="M27.5451 11.887L23.4951 25H20.7411L18.2751 16.873C18.2271 16.747 18.1821 16.609 18.1401 16.459C18.0981 16.303 18.0561 16.141 18.0141 15.973C17.9721 16.141 17.9301 16.303 17.8881 16.459C17.8461 16.609 17.8011 16.747 17.7531 16.873L15.2511 25H12.4971L8.44713 11.887H11.0031C11.2671 11.887 11.4861 11.947 11.6601 12.067C11.8401 12.187 11.9571 12.346 12.0111 12.544L13.8111 19.384C13.8651 19.6 13.9191 19.837 13.9731 20.095C14.0271 20.347 14.0811 20.611 14.1351 20.887C14.2431 20.323 14.3751 19.822 14.5311 19.384L16.6551 12.544C16.7091 12.376 16.8231 12.226 16.9971 12.094C17.1771 11.956 17.3931 11.887 17.6451 11.887H18.5451C18.8091 11.887 19.0221 11.95 19.1841 12.076C19.3461 12.196 19.4691 12.352 19.5531 12.544L21.6591 19.384C21.8151 19.804 21.9471 20.281 22.0551 20.815C22.1031 20.545 22.1511 20.293 22.1991 20.059C22.2531 19.819 22.3071 19.594 22.3611 19.384L24.1611 12.544C24.2091 12.37 24.3231 12.217 24.5031 12.085C24.6831 11.953 24.8991 11.887 25.1511 11.887H27.5451Z" fill="#2F80ED"/>
</svg>
